<svg xmlns="http://www.w3.org/2000/svg" width="980" height="800" viewBox="0 0 980 800" role="img" aria-label="Wariant uproszczony wobec pełnego"><title>Wariant uproszczony wobec pełnego</title><defs><marker id="gr" viewBox="0 0 10 10" refX="9" refY="5" markerWidth="7" markerHeight="7" orient="auto-start-reverse"><path d="M0 1 L9 5 L0 9 z" fill="#616161"/></marker><marker id="gr-s" viewBox="0 0 10 10" refX="9" refY="5" markerWidth="7" markerHeight="7" orient="auto-start-reverse"><path d="M0 1 L9 5 L0 9 z" fill="#3B6FE0"/></marker></defs><rect width="980" height="800" fill="#FFFFFF"/><text x="24.00" y="30.00" font-family="'IBM Plex Sans','DejaVu Sans',sans-serif" font-size="15" font-weight="600" letter-spacing="0" fill="#16181D" text-anchor="start">Rysunek 05 · Wariant uproszczony wobec sygnetu pełnego</text><text x="24.00" y="46.00" font-family="'IBM Plex Mono','DejaVu Sans Mono',monospace" font-size="10.5" font-weight="400" letter-spacing="0" fill="#7C7C7C" text-anchor="start">ten sam kadr 96 × 96 · większy moduł X · grubsza kreska · próg przełączenia 24 px</text><line x1="24.00" y1="56.00" x2="956.00" y2="56.00" stroke="#D7D7D7" stroke-width="1" stroke-linecap="butt" opacity="1"/><rect x="60.00" y="130.00" width="422.40" height="422.40" rx="0" fill="#FFFFFF" stroke="#C0C0C0" stroke-width="1" opacity="1"/><line x1="60.00" y1="130.00" x2="482.40" y2="130.00" stroke="#ECECEC" stroke-width="0.9" stroke-linecap="butt" opacity="1"/><line x1="60.00" y1="130.00" x2="60.00" y2="552.40" stroke="#ECECEC" stroke-width="0.9" stroke-linecap="butt" opacity="1"/><line x1="60.00" y1="147.60" x2="482.40" y2="147.60" stroke="#F7F7F7" stroke-width="0.6" stroke-linecap="butt" opacity="1"/><line x1="77.60" y1="130.00" x2="77.60" y2="552.40" stroke="#F7F7F7" stroke-width="0.6" stroke-linecap="butt" opacity="1"/><line x1="60.00" y1="165.20" x2="482.40" y2="165.20" stroke="#F7F7F7" stroke-width="0.6" stroke-linecap="butt" opacity="1"/><line x1="95.20" y1="130.00" x2="95.20" y2="552.40" stroke="#F7F7F7" stroke-width="0.6" stroke-linecap="butt" opacity="1"/><line x1="60.00" y1="182.80" x2="482.40" y2="182.80" stroke="#ECECEC" stroke-width="0.9" stroke-linecap="butt" opacity="1"/><line x1="112.80" y1="130.00" x2="112.80" y2="552.40" stroke="#ECECEC" stroke-width="0.9" stroke-linecap="butt" opacity="1"/><line x1="60.00" y1="200.40" x2="482.40" y2="200.40" stroke="#F7F7F7" stroke-width="0.6" stroke-linecap="butt" opacity="1"/><line x1="130.40" y1="130.00" x2="130.40" y2="552.40" stroke="#F7F7F7" stroke-width="0.6" stroke-linecap="butt" opacity="1"/><line x1="60.00" y1="218.00" x2="482.40" y2="218.00" stroke="#F7F7F7" stroke-width="0.6" stroke-linecap="butt" opacity="1"/><line x1="148.00" y1="130.00" x2="148.00" y2="552.40" stroke="#F7F7F7" stroke-width="0.6" stroke-linecap="butt" opacity="1"/><line x1="60.00" y1="235.60" x2="482.40" y2="235.60" stroke="#ECECEC" stroke-width="0.9" stroke-linecap="butt" opacity="1"/><line x1="165.60" y1="130.00" x2="165.60" y2="552.40" stroke="#ECECEC" stroke-width="0.9" stroke-linecap="butt" opacity="1"/><line x1="60.00" y1="253.20" x2="482.40" y2="253.20" stroke="#F7F7F7" stroke-width="0.6" stroke-linecap="butt" opacity="1"/><line x1="183.20" y1="130.00" x2="183.20" y2="552.40" stroke="#F7F7F7" stroke-width="0.6" stroke-linecap="butt" opacity="1"/><line x1="60.00" y1="270.80" x2="482.40" y2="270.80" stroke="#F7F7F7" stroke-width="0.6" stroke-linecap="butt" opacity="1"/><line x1="200.80" y1="130.00" x2="200.80" y2="552.40" stroke="#F7F7F7" stroke-width="0.6" stroke-linecap="butt" opacity="1"/><line x1="60.00" y1="288.40" x2="482.40" y2="288.40" stroke="#ECECEC" stroke-width="0.9" stroke-linecap="butt" opacity="1"/><line x1="218.40" y1="130.00" x2="218.40" y2="552.40" stroke="#ECECEC" stroke-width="0.9" stroke-linecap="butt" opacity="1"/><line x1="60.00" y1="306.00" x2="482.40" y2="306.00" stroke="#F7F7F7" stroke-width="0.6" stroke-linecap="butt" opacity="1"/><line x1="236.00" y1="130.00" x2="236.00" y2="552.40" stroke="#F7F7F7" stroke-width="0.6" stroke-linecap="butt" opacity="1"/><line x1="60.00" y1="323.60" x2="482.40" y2="323.60" stroke="#F7F7F7" stroke-width="0.6" stroke-linecap="butt" opacity="1"/><line x1="253.60" y1="130.00" x2="253.60" y2="552.40" stroke="#F7F7F7" stroke-width="0.6" stroke-linecap="butt" opacity="1"/><line x1="60.00" y1="341.20" x2="482.40" y2="341.20" stroke="#ECECEC" stroke-width="0.9" stroke-linecap="butt" opacity="1"/><line x1="271.20" y1="130.00" x2="271.20" y2="552.40" stroke="#ECECEC" stroke-width="0.9" stroke-linecap="butt" opacity="1"/><line x1="60.00" y1="358.80" x2="482.40" y2="358.80" stroke="#F7F7F7" stroke-width="0.6" stroke-linecap="butt" opacity="1"/><line x1="288.80" y1="130.00" x2="288.80" y2="552.40" stroke="#F7F7F7" stroke-width="0.6" stroke-linecap="butt" opacity="1"/><line x1="60.00" y1="376.40" x2="482.40" y2="376.40" stroke="#F7F7F7" stroke-width="0.6" stroke-linecap="butt" opacity="1"/><line x1="306.40" y1="130.00" x2="306.40" y2="552.40" stroke="#F7F7F7" stroke-width="0.6" stroke-linecap="butt" opacity="1"/><line x1="60.00" y1="394.00" x2="482.40" y2="394.00" stroke="#ECECEC" stroke-width="0.9" stroke-linecap="butt" opacity="1"/><line x1="324.00" y1="130.00" x2="324.00" y2="552.40" stroke="#ECECEC" stroke-width="0.9" stroke-linecap="butt" opacity="1"/><line x1="60.00" y1="411.60" x2="482.40" y2="411.60" stroke="#F7F7F7" stroke-width="0.6" stroke-linecap="butt" opacity="1"/><line x1="341.60" y1="130.00" x2="341.60" y2="552.40" stroke="#F7F7F7" stroke-width="0.6" stroke-linecap="butt" opacity="1"/><line x1="60.00" y1="429.20" x2="482.40" y2="429.20" stroke="#F7F7F7" stroke-width="0.6" stroke-linecap="butt" opacity="1"/><line x1="359.20" y1="130.00" x2="359.20" y2="552.40" stroke="#F7F7F7" stroke-width="0.6" stroke-linecap="butt" opacity="1"/><line x1="60.00" y1="446.80" x2="482.40" y2="446.80" stroke="#ECECEC" stroke-width="0.9" stroke-linecap="butt" opacity="1"/><line x1="376.80" y1="130.00" x2="376.80" y2="552.40" stroke="#ECECEC" stroke-width="0.9" stroke-linecap="butt" opacity="1"/><line x1="60.00" y1="464.40" x2="482.40" y2="464.40" stroke="#F7F7F7" stroke-width="0.6" stroke-linecap="butt" opacity="1"/><line x1="394.40" y1="130.00" x2="394.40" y2="552.40" stroke="#F7F7F7" stroke-width="0.6" stroke-linecap="butt" opacity="1"/><line x1="60.00" y1="482.00" x2="482.40" y2="482.00" stroke="#F7F7F7" stroke-width="0.6" stroke-linecap="butt" opacity="1"/><line x1="412.00" y1="130.00" x2="412.00" y2="552.40" stroke="#F7F7F7" stroke-width="0.6" stroke-linecap="butt" opacity="1"/><line x1="60.00" y1="499.60" x2="482.40" y2="499.60" stroke="#ECECEC" stroke-width="0.9" stroke-linecap="butt" opacity="1"/><line x1="429.60" y1="130.00" x2="429.60" y2="552.40" stroke="#ECECEC" stroke-width="0.9" stroke-linecap="butt" opacity="1"/><line x1="60.00" y1="517.20" x2="482.40" y2="517.20" stroke="#F7F7F7" stroke-width="0.6" stroke-linecap="butt" opacity="1"/><line x1="447.20" y1="130.00" x2="447.20" y2="552.40" stroke="#F7F7F7" stroke-width="0.6" stroke-linecap="butt" opacity="1"/><line x1="60.00" y1="534.80" x2="482.40" y2="534.80" stroke="#F7F7F7" stroke-width="0.6" stroke-linecap="butt" opacity="1"/><line x1="464.80" y1="130.00" x2="464.80" y2="552.40" stroke="#F7F7F7" stroke-width="0.6" stroke-linecap="butt" opacity="1"/><line x1="60.00" y1="552.40" x2="482.40" y2="552.40" stroke="#ECECEC" stroke-width="0.9" stroke-linecap="butt" opacity="1"/><line x1="482.40" y1="130.00" x2="482.40" y2="552.40" stroke="#ECECEC" stroke-width="0.9" stroke-linecap="butt" opacity="1"/><g opacity="1" transform="translate(60,130) scale(4.4)"><path d="M12 26 L24 26 L44 48 L24 70 L12 70 L32 48 Z" fill="#16181D"/><path d="M40 26 L52 26 L72 48 L52 70 L40 70 L60 48 Z" fill="#16181D"/><circle cx="83" cy="63.5" r="6.5" fill="#3B6FE0"/></g><rect x="112.80" y="244.40" width="341.00" height="193.60" rx="0" fill="none" stroke="#5C8CEC" stroke-width="1" opacity="1" stroke-dasharray="4 3"/><line x1="40.00" y1="244.40" x2="40.00" y2="438.00" stroke="#3B6FE0" stroke-width="0.9" marker-start="url(#gr-s)" marker-end="url(#gr-s)"/><text x="34.00" y="344.70" font-family="'IBM Plex Mono','DejaVu Sans Mono',monospace" font-size="11" font-weight="400" letter-spacing="0" fill="#3B6FE0" text-anchor="end">44</text><line x1="112.80" y1="578.40" x2="453.80" y2="578.40" stroke="#3B6FE0" stroke-width="0.9" marker-start="url(#gr-s)" marker-end="url(#gr-s)"/><text x="283.30" y="590.40" font-family="'IBM Plex Mono','DejaVu Sans Mono',monospace" font-size="10.5" font-weight="400" letter-spacing="0" fill="#3B6FE0" text-anchor="middle">77,5</text><text x="60.00" y="100.00" font-family="'IBM Plex Mono','DejaVu Sans Mono',monospace" font-size="11" font-weight="700" letter-spacing="0.1em" fill="#16181D" text-anchor="start">SYGNET PEŁNY</text><text x="60.00" y="116.00" font-family="'IBM Plex Mono','DejaVu Sans Mono',monospace" font-size="10" font-weight="400" letter-spacing="0" fill="#7C7C7C" text-anchor="start">X = 44 j.  ·  stosowany od 24 px w górę</text><rect x="530.00" y="130.00" width="422.40" height="422.40" rx="0" fill="#FFFFFF" stroke="#C0C0C0" stroke-width="1" opacity="1"/><line x1="530.00" y1="130.00" x2="952.40" y2="130.00" stroke="#ECECEC" stroke-width="0.9" stroke-linecap="butt" opacity="1"/><line x1="530.00" y1="130.00" x2="530.00" y2="552.40" stroke="#ECECEC" stroke-width="0.9" stroke-linecap="butt" opacity="1"/><line x1="530.00" y1="147.60" x2="952.40" y2="147.60" stroke="#F7F7F7" stroke-width="0.6" stroke-linecap="butt" opacity="1"/><line x1="547.60" y1="130.00" x2="547.60" y2="552.40" stroke="#F7F7F7" stroke-width="0.6" stroke-linecap="butt" opacity="1"/><line x1="530.00" y1="165.20" x2="952.40" y2="165.20" stroke="#F7F7F7" stroke-width="0.6" stroke-linecap="butt" opacity="1"/><line x1="565.20" y1="130.00" x2="565.20" y2="552.40" stroke="#F7F7F7" stroke-width="0.6" stroke-linecap="butt" opacity="1"/><line x1="530.00" y1="182.80" x2="952.40" y2="182.80" stroke="#ECECEC" stroke-width="0.9" stroke-linecap="butt" opacity="1"/><line x1="582.80" y1="130.00" x2="582.80" y2="552.40" stroke="#ECECEC" stroke-width="0.9" stroke-linecap="butt" opacity="1"/><line x1="530.00" y1="200.40" x2="952.40" y2="200.40" stroke="#F7F7F7" stroke-width="0.6" stroke-linecap="butt" opacity="1"/><line x1="600.40" y1="130.00" x2="600.40" y2="552.40" stroke="#F7F7F7" stroke-width="0.6" stroke-linecap="butt" opacity="1"/><line x1="530.00" y1="218.00" x2="952.40" y2="218.00" stroke="#F7F7F7" stroke-width="0.6" stroke-linecap="butt" opacity="1"/><line x1="618.00" y1="130.00" x2="618.00" y2="552.40" stroke="#F7F7F7" stroke-width="0.6" stroke-linecap="butt" opacity="1"/><line x1="530.00" y1="235.60" x2="952.40" y2="235.60" stroke="#ECECEC" stroke-width="0.9" stroke-linecap="butt" opacity="1"/><line x1="635.60" y1="130.00" x2="635.60" y2="552.40" stroke="#ECECEC" stroke-width="0.9" stroke-linecap="butt" opacity="1"/><line x1="530.00" y1="253.20" x2="952.40" y2="253.20" stroke="#F7F7F7" stroke-width="0.6" stroke-linecap="butt" opacity="1"/><line x1="653.20" y1="130.00" x2="653.20" y2="552.40" stroke="#F7F7F7" stroke-width="0.6" stroke-linecap="butt" opacity="1"/><line x1="530.00" y1="270.80" x2="952.40" y2="270.80" stroke="#F7F7F7" stroke-width="0.6" stroke-linecap="butt" opacity="1"/><line x1="670.80" y1="130.00" x2="670.80" y2="552.40" stroke="#F7F7F7" stroke-width="0.6" stroke-linecap="butt" opacity="1"/><line x1="530.00" y1="288.40" x2="952.40" y2="288.40" stroke="#ECECEC" stroke-width="0.9" stroke-linecap="butt" opacity="1"/><line x1="688.40" y1="130.00" x2="688.40" y2="552.40" stroke="#ECECEC" stroke-width="0.9" stroke-linecap="butt" opacity="1"/><line x1="530.00" y1="306.00" x2="952.40" y2="306.00" stroke="#F7F7F7" stroke-width="0.6" stroke-linecap="butt" opacity="1"/><line x1="706.00" y1="130.00" x2="706.00" y2="552.40" stroke="#F7F7F7" stroke-width="0.6" stroke-linecap="butt" opacity="1"/><line x1="530.00" y1="323.60" x2="952.40" y2="323.60" stroke="#F7F7F7" stroke-width="0.6" stroke-linecap="butt" opacity="1"/><line x1="723.60" y1="130.00" x2="723.60" y2="552.40" stroke="#F7F7F7" stroke-width="0.6" stroke-linecap="butt" opacity="1"/><line x1="530.00" y1="341.20" x2="952.40" y2="341.20" stroke="#ECECEC" stroke-width="0.9" stroke-linecap="butt" opacity="1"/><line x1="741.20" y1="130.00" x2="741.20" y2="552.40" stroke="#ECECEC" stroke-width="0.9" stroke-linecap="butt" opacity="1"/><line x1="530.00" y1="358.80" x2="952.40" y2="358.80" stroke="#F7F7F7" stroke-width="0.6" stroke-linecap="butt" opacity="1"/><line x1="758.80" y1="130.00" x2="758.80" y2="552.40" stroke="#F7F7F7" stroke-width="0.6" stroke-linecap="butt" opacity="1"/><line x1="530.00" y1="376.40" x2="952.40" y2="376.40" stroke="#F7F7F7" stroke-width="0.6" stroke-linecap="butt" opacity="1"/><line x1="776.40" y1="130.00" x2="776.40" y2="552.40" stroke="#F7F7F7" stroke-width="0.6" stroke-linecap="butt" opacity="1"/><line x1="530.00" y1="394.00" x2="952.40" y2="394.00" stroke="#ECECEC" stroke-width="0.9" stroke-linecap="butt" opacity="1"/><line x1="794.00" y1="130.00" x2="794.00" y2="552.40" stroke="#ECECEC" stroke-width="0.9" stroke-linecap="butt" opacity="1"/><line x1="530.00" y1="411.60" x2="952.40" y2="411.60" stroke="#F7F7F7" stroke-width="0.6" stroke-linecap="butt" opacity="1"/><line x1="811.60" y1="130.00" x2="811.60" y2="552.40" stroke="#F7F7F7" stroke-width="0.6" stroke-linecap="butt" opacity="1"/><line x1="530.00" y1="429.20" x2="952.40" y2="429.20" stroke="#F7F7F7" stroke-width="0.6" stroke-linecap="butt" opacity="1"/><line x1="829.20" y1="130.00" x2="829.20" y2="552.40" stroke="#F7F7F7" stroke-width="0.6" stroke-linecap="butt" opacity="1"/><line x1="530.00" y1="446.80" x2="952.40" y2="446.80" stroke="#ECECEC" stroke-width="0.9" stroke-linecap="butt" opacity="1"/><line x1="846.80" y1="130.00" x2="846.80" y2="552.40" stroke="#ECECEC" stroke-width="0.9" stroke-linecap="butt" opacity="1"/><line x1="530.00" y1="464.40" x2="952.40" y2="464.40" stroke="#F7F7F7" stroke-width="0.6" stroke-linecap="butt" opacity="1"/><line x1="864.40" y1="130.00" x2="864.40" y2="552.40" stroke="#F7F7F7" stroke-width="0.6" stroke-linecap="butt" opacity="1"/><line x1="530.00" y1="482.00" x2="952.40" y2="482.00" stroke="#F7F7F7" stroke-width="0.6" stroke-linecap="butt" opacity="1"/><line x1="882.00" y1="130.00" x2="882.00" y2="552.40" stroke="#F7F7F7" stroke-width="0.6" stroke-linecap="butt" opacity="1"/><line x1="530.00" y1="499.60" x2="952.40" y2="499.60" stroke="#ECECEC" stroke-width="0.9" stroke-linecap="butt" opacity="1"/><line x1="899.60" y1="130.00" x2="899.60" y2="552.40" stroke="#ECECEC" stroke-width="0.9" stroke-linecap="butt" opacity="1"/><line x1="530.00" y1="517.20" x2="952.40" y2="517.20" stroke="#F7F7F7" stroke-width="0.6" stroke-linecap="butt" opacity="1"/><line x1="917.20" y1="130.00" x2="917.20" y2="552.40" stroke="#F7F7F7" stroke-width="0.6" stroke-linecap="butt" opacity="1"/><line x1="530.00" y1="534.80" x2="952.40" y2="534.80" stroke="#F7F7F7" stroke-width="0.6" stroke-linecap="butt" opacity="1"/><line x1="934.80" y1="130.00" x2="934.80" y2="552.40" stroke="#F7F7F7" stroke-width="0.6" stroke-linecap="butt" opacity="1"/><line x1="530.00" y1="552.40" x2="952.40" y2="552.40" stroke="#ECECEC" stroke-width="0.9" stroke-linecap="butt" opacity="1"/><line x1="952.40" y1="130.00" x2="952.40" y2="552.40" stroke="#ECECEC" stroke-width="0.9" stroke-linecap="butt" opacity="1"/><g opacity="1" transform="translate(530,130) scale(4.4)"><path d="M18 18 L35 18 L64 48 L35 78 L18 78 L45 48 Z" fill="#16181D"/><circle cx="79" cy="69" r="9" fill="#3B6FE0"/></g><rect x="609.20" y="209.20" width="308.00" height="264.00" rx="0" fill="none" stroke="#5C8CEC" stroke-width="1" opacity="1" stroke-dasharray="4 3"/><line x1="510.00" y1="209.20" x2="510.00" y2="473.20" stroke="#3B6FE0" stroke-width="0.9" marker-start="url(#gr-s)" marker-end="url(#gr-s)"/><text x="504.00" y="344.70" font-family="'IBM Plex Mono','DejaVu Sans Mono',monospace" font-size="11" font-weight="400" letter-spacing="0" fill="#3B6FE0" text-anchor="end">60</text><line x1="609.20" y1="578.40" x2="917.20" y2="578.40" stroke="#3B6FE0" stroke-width="0.9" marker-start="url(#gr-s)" marker-end="url(#gr-s)"/><text x="763.20" y="590.40" font-family="'IBM Plex Mono','DejaVu Sans Mono',monospace" font-size="10.5" font-weight="400" letter-spacing="0" fill="#3B6FE0" text-anchor="middle">70</text><text x="530.00" y="100.00" font-family="'IBM Plex Mono','DejaVu Sans Mono',monospace" font-size="11" font-weight="700" letter-spacing="0.1em" fill="#16181D" text-anchor="start">SYGNET UPROSZCZONY</text><text x="530.00" y="116.00" font-family="'IBM Plex Mono','DejaVu Sans Mono',monospace" font-size="10" font-weight="400" letter-spacing="0" fill="#7C7C7C" text-anchor="start">X = 60 j.  ·  stosowany od 16 do 24 px</text><line x1="24.00" y1="610.00" x2="956.00" y2="610.00" stroke="#D7D7D7" stroke-width="1" stroke-linecap="butt" opacity="1"/><text x="24.00" y="630.00" font-family="'IBM Plex Mono','DejaVu Sans Mono',monospace" font-size="10" font-weight="600" letter-spacing="0.14em" fill="#16181D" text-anchor="start">PORÓWNANIE PARAMETRÓW</text><text x="24.00" y="652.00" font-family="'IBM Plex Mono','DejaVu Sans Mono',monospace" font-size="9.8" font-weight="600" letter-spacing="0" fill="#16181D" text-anchor="start">parametr</text><text x="600.00" y="652.00" font-family="'IBM Plex Mono','DejaVu Sans Mono',monospace" font-size="9.8" font-weight="600" letter-spacing="0" fill="#16181D" text-anchor="end">pełny</text><text x="940.00" y="652.00" font-family="'IBM Plex Mono','DejaVu Sans Mono',monospace" font-size="9.8" font-weight="600" letter-spacing="0" fill="#16181D" text-anchor="end">uproszczony</text><text x="24.00" y="670.00" font-family="'IBM Plex Mono','DejaVu Sans Mono',monospace" font-size="9.8" font-weight="400" letter-spacing="0" fill="#616161" text-anchor="start">moduł X (wysokość grotu)</text><text x="600.00" y="670.00" font-family="'IBM Plex Mono','DejaVu Sans Mono',monospace" font-size="9.8" font-weight="400" letter-spacing="0" fill="#16181D" text-anchor="end">44,000 j.</text><text x="940.00" y="670.00" font-family="'IBM Plex Mono','DejaVu Sans Mono',monospace" font-size="9.8" font-weight="400" letter-spacing="0" fill="#3B6FE0" text-anchor="end">60,000 j.</text><text x="24.00" y="688.00" font-family="'IBM Plex Mono','DejaVu Sans Mono',monospace" font-size="9.8" font-weight="400" letter-spacing="0" fill="#616161" text-anchor="start">grubość ramienia prostopadle</text><text x="600.00" y="688.00" font-family="'IBM Plex Mono','DejaVu Sans Mono',monospace" font-size="9.8" font-weight="400" letter-spacing="0" fill="#16181D" text-anchor="end">8,879 j.  ·  0,202 X</text><text x="940.00" y="688.00" font-family="'IBM Plex Mono','DejaVu Sans Mono',monospace" font-size="9.8" font-weight="400" letter-spacing="0" fill="#3B6FE0" text-anchor="end">12,223 j.  ·  0,204 X</text><text x="24.00" y="706.00" font-family="'IBM Plex Mono','DejaVu Sans Mono',monospace" font-size="9.8" font-weight="400" letter-spacing="0" fill="#616161" text-anchor="start">średnica kropki</text><text x="600.00" y="706.00" font-family="'IBM Plex Mono','DejaVu Sans Mono',monospace" font-size="9.8" font-weight="400" letter-spacing="0" fill="#16181D" text-anchor="end">13,0 j.  ·  0,295 X</text><text x="940.00" y="706.00" font-family="'IBM Plex Mono','DejaVu Sans Mono',monospace" font-size="9.8" font-weight="400" letter-spacing="0" fill="#3B6FE0" text-anchor="end">18,0 j.  ·  0,300 X</text><text x="24.00" y="724.00" font-family="'IBM Plex Mono','DejaVu Sans Mono',monospace" font-size="9.8" font-weight="400" letter-spacing="0" fill="#616161" text-anchor="start">prześwit grot → kropka</text><text x="600.00" y="724.00" font-family="'IBM Plex Mono','DejaVu Sans Mono',monospace" font-size="9.8" font-weight="400" letter-spacing="0" fill="#16181D" text-anchor="end">4,5 j.  ·  0,102 X</text><text x="940.00" y="724.00" font-family="'IBM Plex Mono','DejaVu Sans Mono',monospace" font-size="9.8" font-weight="400" letter-spacing="0" fill="#3B6FE0" text-anchor="end">6,0 j.  ·  0,100 X</text><text x="24.00" y="742.00" font-family="'IBM Plex Mono','DejaVu Sans Mono',monospace" font-size="9.8" font-weight="400" letter-spacing="0" fill="#616161" text-anchor="start">kąt rozwarcia grotu</text><text x="600.00" y="742.00" font-family="'IBM Plex Mono','DejaVu Sans Mono',monospace" font-size="9.8" font-weight="400" letter-spacing="0" fill="#16181D" text-anchor="end">95,45°</text><text x="940.00" y="742.00" font-family="'IBM Plex Mono','DejaVu Sans Mono',monospace" font-size="9.8" font-weight="400" letter-spacing="0" fill="#3B6FE0" text-anchor="end">91,94°</text><text x="24.00" y="760.00" font-family="'IBM Plex Mono','DejaVu Sans Mono',monospace" font-size="9.8" font-weight="400" letter-spacing="0" fill="#616161" text-anchor="start">pole farby</text><text x="600.00" y="760.00" font-family="'IBM Plex Mono','DejaVu Sans Mono',monospace" font-size="9.8" font-weight="400" letter-spacing="0" fill="#16181D" text-anchor="end">77,5 × 44  ·  1,761 : 1</text><text x="940.00" y="760.00" font-family="'IBM Plex Mono','DejaVu Sans Mono',monospace" font-size="9.8" font-weight="400" letter-spacing="0" fill="#3B6FE0" text-anchor="end">70 × 60  ·  1,167 : 1</text><line x1="24.00" y1="766.00" x2="956.00" y2="766.00" stroke="#D7D7D7" stroke-width="1" stroke-linecap="butt" opacity="1"/><text x="24.00" y="782.00" font-family="'IBM Plex Mono','DejaVu Sans Mono',monospace" font-size="9.5" font-weight="400" letter-spacing="0" fill="#7C7C7C" text-anchor="start">konstrukcja/rys-05-wariant-uproszczony.svg</text><text x="956.00" y="782.00" font-family="'IBM Plex Mono','DejaVu Sans Mono',monospace" font-size="9.5" font-weight="400" letter-spacing="0" fill="#7C7C7C" text-anchor="end">Danaco Console · v2.0</text></svg>